<mxfile host="app.diagrams.net" modified="2020-12-25T15:38:52.970Z" agent="5.0 (Macintosh; Intel Mac OS X 10_15_6) AppleWebKit/605.1.15 (KHTML, like Gecko) Version/14.0.2 Safari/605.1.15" etag="LB7p4_ECe5ZekehmbHZi" version="14.1.2" type="github">
  <diagram id="C5RBs43oDa-KdzZeNtuy" name="Page-1">
    <mxGraphModel dx="1512" dy="666" grid="1" gridSize="10" guides="1" tooltips="1" connect="1" arrows="1" fold="1" page="1" pageScale="1" pageWidth="827" pageHeight="1169" math="0" shadow="0">
      <root>
        <mxCell id="WIyWlLk6GJQsqaUBKTNV-0" />
        <mxCell id="WIyWlLk6GJQsqaUBKTNV-1" parent="WIyWlLk6GJQsqaUBKTNV-0" />
        <mxCell id="GByTZLMGITt-RZH-Ib0M-50" value="" style="rounded=0;whiteSpace=wrap;html=1;" vertex="1" parent="WIyWlLk6GJQsqaUBKTNV-1">
          <mxGeometry x="880" y="200" width="1820" height="80" as="geometry" />
        </mxCell>
        <mxCell id="GByTZLMGITt-RZH-Ib0M-37" value="" style="rounded=0;whiteSpace=wrap;html=1;" vertex="1" parent="WIyWlLk6GJQsqaUBKTNV-1">
          <mxGeometry x="340" y="200" width="530" height="80" as="geometry" />
        </mxCell>
        <mxCell id="GByTZLMGITt-RZH-Ib0M-1" style="edgeStyle=orthogonalEdgeStyle;rounded=0;orthogonalLoop=1;jettySize=auto;html=1;exitX=0.5;exitY=1;exitDx=0;exitDy=0;" edge="1" parent="WIyWlLk6GJQsqaUBKTNV-1">
          <mxGeometry relative="1" as="geometry">
            <mxPoint x="155" y="154" as="sourcePoint" />
            <mxPoint x="155" y="154" as="targetPoint" />
          </mxGeometry>
        </mxCell>
        <mxCell id="GByTZLMGITt-RZH-Ib0M-15" value="" style="edgeStyle=none;rounded=0;orthogonalLoop=1;jettySize=auto;html=1;" edge="1" parent="WIyWlLk6GJQsqaUBKTNV-1" source="GByTZLMGITt-RZH-Ib0M-13" target="GByTZLMGITt-RZH-Ib0M-14">
          <mxGeometry relative="1" as="geometry" />
        </mxCell>
        <mxCell id="GByTZLMGITt-RZH-Ib0M-13" value="&lt;p&gt;&lt;span style=&quot;color: rgb(255 , 198 , 109)&quot;&gt;ClassPathXmlApplicationContext&lt;/span&gt;&lt;/p&gt;" style="rounded=1;whiteSpace=wrap;html=1;" vertex="1" parent="WIyWlLk6GJQsqaUBKTNV-1">
          <mxGeometry x="20" y="40" width="250" height="60" as="geometry" />
        </mxCell>
        <mxCell id="GByTZLMGITt-RZH-Ib0M-18" value="" style="edgeStyle=none;rounded=0;orthogonalLoop=1;jettySize=auto;html=1;" edge="1" parent="WIyWlLk6GJQsqaUBKTNV-1" source="GByTZLMGITt-RZH-Ib0M-14" target="GByTZLMGITt-RZH-Ib0M-17">
          <mxGeometry relative="1" as="geometry" />
        </mxCell>
        <mxCell id="GByTZLMGITt-RZH-Ib0M-14" value="&lt;p&gt;setConfigLocations()&lt;/p&gt;" style="whiteSpace=wrap;html=1;rounded=1;" vertex="1" parent="WIyWlLk6GJQsqaUBKTNV-1">
          <mxGeometry x="20" y="160" width="250" height="30" as="geometry" />
        </mxCell>
        <mxCell id="GByTZLMGITt-RZH-Ib0M-16" value="设置加载配置文件，&lt;br&gt;不设置的话按照默认" style="text;html=1;align=center;verticalAlign=middle;resizable=0;points=[];autosize=1;" vertex="1" parent="WIyWlLk6GJQsqaUBKTNV-1">
          <mxGeometry x="10" y="130" width="120" height="30" as="geometry" />
        </mxCell>
        <mxCell id="GByTZLMGITt-RZH-Ib0M-17" value="&lt;p&gt;&lt;span style=&quot;color: rgb(255 , 198 , 109)&quot;&gt;refresh()&lt;/span&gt;&lt;/p&gt;" style="whiteSpace=wrap;html=1;rounded=1;" vertex="1" parent="WIyWlLk6GJQsqaUBKTNV-1">
          <mxGeometry x="20" y="240" width="250" height="30" as="geometry" />
        </mxCell>
        <mxCell id="GByTZLMGITt-RZH-Ib0M-19" value="加载容器入口" style="text;html=1;strokeColor=none;fillColor=none;align=center;verticalAlign=middle;whiteSpace=wrap;rounded=0;" vertex="1" parent="WIyWlLk6GJQsqaUBKTNV-1">
          <mxGeometry x="40" y="245" width="40" height="20" as="geometry" />
        </mxCell>
        <mxCell id="GByTZLMGITt-RZH-Ib0M-24" style="edgeStyle=orthogonalEdgeStyle;rounded=0;orthogonalLoop=1;jettySize=auto;html=1;entryX=0.5;entryY=0;entryDx=0;entryDy=0;" edge="1" parent="WIyWlLk6GJQsqaUBKTNV-1" source="GByTZLMGITt-RZH-Ib0M-22" target="GByTZLMGITt-RZH-Ib0M-23">
          <mxGeometry relative="1" as="geometry" />
        </mxCell>
        <mxCell id="GByTZLMGITt-RZH-Ib0M-52" value="设置日期及启动属性配置" style="edgeLabel;html=1;align=center;verticalAlign=middle;resizable=0;points=[];" vertex="1" connectable="0" parent="GByTZLMGITt-RZH-Ib0M-24">
          <mxGeometry x="0.9287" y="-4" relative="1" as="geometry">
            <mxPoint as="offset" />
          </mxGeometry>
        </mxCell>
        <mxCell id="GByTZLMGITt-RZH-Ib0M-38" style="edgeStyle=orthogonalEdgeStyle;rounded=0;orthogonalLoop=1;jettySize=auto;html=1;entryX=0.433;entryY=-0.017;entryDx=0;entryDy=0;entryPerimeter=0;" edge="1" parent="WIyWlLk6GJQsqaUBKTNV-1" source="GByTZLMGITt-RZH-Ib0M-22" target="GByTZLMGITt-RZH-Ib0M-25">
          <mxGeometry relative="1" as="geometry" />
        </mxCell>
        <mxCell id="GByTZLMGITt-RZH-Ib0M-94" value="加载初始化beanDefinitionMap" style="edgeLabel;html=1;align=center;verticalAlign=middle;resizable=0;points=[];" vertex="1" connectable="0" parent="GByTZLMGITt-RZH-Ib0M-38">
          <mxGeometry x="0.9387" y="-1" relative="1" as="geometry">
            <mxPoint as="offset" />
          </mxGeometry>
        </mxCell>
        <mxCell id="GByTZLMGITt-RZH-Ib0M-39" style="edgeStyle=orthogonalEdgeStyle;rounded=0;orthogonalLoop=1;jettySize=auto;html=1;" edge="1" parent="WIyWlLk6GJQsqaUBKTNV-1" source="GByTZLMGITt-RZH-Ib0M-22" target="GByTZLMGITt-RZH-Ib0M-27">
          <mxGeometry relative="1" as="geometry" />
        </mxCell>
        <mxCell id="GByTZLMGITt-RZH-Ib0M-95" value="设置bean相关参数" style="edgeLabel;html=1;align=center;verticalAlign=middle;resizable=0;points=[];" vertex="1" connectable="0" parent="GByTZLMGITt-RZH-Ib0M-39">
          <mxGeometry x="0.9163" y="-3" relative="1" as="geometry">
            <mxPoint as="offset" />
          </mxGeometry>
        </mxCell>
        <mxCell id="GByTZLMGITt-RZH-Ib0M-40" style="edgeStyle=orthogonalEdgeStyle;rounded=0;orthogonalLoop=1;jettySize=auto;html=1;" edge="1" parent="WIyWlLk6GJQsqaUBKTNV-1" source="GByTZLMGITt-RZH-Ib0M-22" target="GByTZLMGITt-RZH-Ib0M-28">
          <mxGeometry relative="1" as="geometry" />
        </mxCell>
        <mxCell id="GByTZLMGITt-RZH-Ib0M-103" value="后置处理" style="edgeLabel;html=1;align=center;verticalAlign=middle;resizable=0;points=[];" vertex="1" connectable="0" parent="GByTZLMGITt-RZH-Ib0M-40">
          <mxGeometry x="0.9023" y="-1" relative="1" as="geometry">
            <mxPoint as="offset" />
          </mxGeometry>
        </mxCell>
        <mxCell id="GByTZLMGITt-RZH-Ib0M-41" style="edgeStyle=orthogonalEdgeStyle;rounded=0;orthogonalLoop=1;jettySize=auto;html=1;" edge="1" parent="WIyWlLk6GJQsqaUBKTNV-1" source="GByTZLMGITt-RZH-Ib0M-22" target="GByTZLMGITt-RZH-Ib0M-29">
          <mxGeometry relative="1" as="geometry" />
        </mxCell>
        <mxCell id="GByTZLMGITt-RZH-Ib0M-42" style="edgeStyle=orthogonalEdgeStyle;rounded=0;orthogonalLoop=1;jettySize=auto;html=1;entryX=0.5;entryY=0;entryDx=0;entryDy=0;" edge="1" parent="WIyWlLk6GJQsqaUBKTNV-1" source="GByTZLMGITt-RZH-Ib0M-22" target="GByTZLMGITt-RZH-Ib0M-30">
          <mxGeometry relative="1" as="geometry" />
        </mxCell>
        <mxCell id="GByTZLMGITt-RZH-Ib0M-104" value="注册拦截bean，创建bean处理" style="edgeLabel;html=1;align=center;verticalAlign=middle;resizable=0;points=[];" vertex="1" connectable="0" parent="GByTZLMGITt-RZH-Ib0M-42">
          <mxGeometry x="0.7177" y="-1" relative="1" as="geometry">
            <mxPoint as="offset" />
          </mxGeometry>
        </mxCell>
        <mxCell id="GByTZLMGITt-RZH-Ib0M-43" style="edgeStyle=orthogonalEdgeStyle;rounded=0;orthogonalLoop=1;jettySize=auto;html=1;entryX=0.5;entryY=0;entryDx=0;entryDy=0;" edge="1" parent="WIyWlLk6GJQsqaUBKTNV-1" source="GByTZLMGITt-RZH-Ib0M-22" target="GByTZLMGITt-RZH-Ib0M-31">
          <mxGeometry relative="1" as="geometry" />
        </mxCell>
        <mxCell id="GByTZLMGITt-RZH-Ib0M-105" value="初始化消息源" style="edgeLabel;html=1;align=center;verticalAlign=middle;resizable=0;points=[];" vertex="1" connectable="0" parent="GByTZLMGITt-RZH-Ib0M-43">
          <mxGeometry x="0.5727" y="-1" relative="1" as="geometry">
            <mxPoint as="offset" />
          </mxGeometry>
        </mxCell>
        <mxCell id="GByTZLMGITt-RZH-Ib0M-44" style="edgeStyle=orthogonalEdgeStyle;rounded=0;orthogonalLoop=1;jettySize=auto;html=1;" edge="1" parent="WIyWlLk6GJQsqaUBKTNV-1" source="GByTZLMGITt-RZH-Ib0M-22" target="GByTZLMGITt-RZH-Ib0M-32">
          <mxGeometry relative="1" as="geometry" />
        </mxCell>
        <mxCell id="GByTZLMGITt-RZH-Ib0M-106" value="初始化事件传播器" style="edgeLabel;html=1;align=center;verticalAlign=middle;resizable=0;points=[];" vertex="1" connectable="0" parent="GByTZLMGITt-RZH-Ib0M-44">
          <mxGeometry x="0.8347" y="1" relative="1" as="geometry">
            <mxPoint as="offset" />
          </mxGeometry>
        </mxCell>
        <mxCell id="GByTZLMGITt-RZH-Ib0M-45" style="edgeStyle=orthogonalEdgeStyle;rounded=0;orthogonalLoop=1;jettySize=auto;html=1;entryX=0.553;entryY=0.033;entryDx=0;entryDy=0;entryPerimeter=0;" edge="1" parent="WIyWlLk6GJQsqaUBKTNV-1" source="GByTZLMGITt-RZH-Ib0M-22" target="GByTZLMGITt-RZH-Ib0M-33">
          <mxGeometry relative="1" as="geometry">
            <Array as="points">
              <mxPoint x="1530" y="162" />
              <mxPoint x="2008" y="162" />
            </Array>
          </mxGeometry>
        </mxCell>
        <mxCell id="GByTZLMGITt-RZH-Ib0M-107" value="刷新（扩展方法）" style="edgeLabel;html=1;align=center;verticalAlign=middle;resizable=0;points=[];" vertex="1" connectable="0" parent="GByTZLMGITt-RZH-Ib0M-45">
          <mxGeometry x="0.9114" y="-2" relative="1" as="geometry">
            <mxPoint as="offset" />
          </mxGeometry>
        </mxCell>
        <mxCell id="GByTZLMGITt-RZH-Ib0M-46" style="edgeStyle=orthogonalEdgeStyle;rounded=0;orthogonalLoop=1;jettySize=auto;html=1;entryX=0.5;entryY=0;entryDx=0;entryDy=0;" edge="1" parent="WIyWlLk6GJQsqaUBKTNV-1" source="GByTZLMGITt-RZH-Ib0M-22" target="GByTZLMGITt-RZH-Ib0M-34">
          <mxGeometry relative="1" as="geometry" />
        </mxCell>
        <mxCell id="GByTZLMGITt-RZH-Ib0M-108" value="注册并监听" style="edgeLabel;html=1;align=center;verticalAlign=middle;resizable=0;points=[];" vertex="1" connectable="0" parent="GByTZLMGITt-RZH-Ib0M-46">
          <mxGeometry x="0.9168" relative="1" as="geometry">
            <mxPoint as="offset" />
          </mxGeometry>
        </mxCell>
        <mxCell id="GByTZLMGITt-RZH-Ib0M-48" style="edgeStyle=orthogonalEdgeStyle;rounded=0;orthogonalLoop=1;jettySize=auto;html=1;" edge="1" parent="WIyWlLk6GJQsqaUBKTNV-1" source="GByTZLMGITt-RZH-Ib0M-22" target="GByTZLMGITt-RZH-Ib0M-35">
          <mxGeometry relative="1" as="geometry" />
        </mxCell>
        <mxCell id="GByTZLMGITt-RZH-Ib0M-109" value="实例化所有剩余的（非延迟初始化）单例。" style="edgeLabel;html=1;align=center;verticalAlign=middle;resizable=0;points=[];" vertex="1" connectable="0" parent="GByTZLMGITt-RZH-Ib0M-48">
          <mxGeometry x="0.9333" y="2" relative="1" as="geometry">
            <mxPoint as="offset" />
          </mxGeometry>
        </mxCell>
        <mxCell id="GByTZLMGITt-RZH-Ib0M-49" style="edgeStyle=orthogonalEdgeStyle;rounded=0;orthogonalLoop=1;jettySize=auto;html=1;" edge="1" parent="WIyWlLk6GJQsqaUBKTNV-1" source="GByTZLMGITt-RZH-Ib0M-22" target="GByTZLMGITt-RZH-Ib0M-36">
          <mxGeometry relative="1" as="geometry" />
        </mxCell>
        <mxCell id="GByTZLMGITt-RZH-Ib0M-110" value="完成刷新ioc初始化，并释放无用缓存" style="edgeLabel;html=1;align=center;verticalAlign=middle;resizable=0;points=[];" vertex="1" connectable="0" parent="GByTZLMGITt-RZH-Ib0M-49">
          <mxGeometry x="0.9598" y="1" relative="1" as="geometry">
            <mxPoint as="offset" />
          </mxGeometry>
        </mxCell>
        <mxCell id="GByTZLMGITt-RZH-Ib0M-22" value="&lt;p&gt;&lt;span style=&quot;color: rgb(255 , 198 , 109)&quot;&gt;refresh()&lt;/span&gt;&lt;/p&gt;" style="whiteSpace=wrap;html=1;rounded=1;" vertex="1" parent="WIyWlLk6GJQsqaUBKTNV-1">
          <mxGeometry x="380" y="40" width="2300" height="70" as="geometry" />
        </mxCell>
        <mxCell id="GByTZLMGITt-RZH-Ib0M-23" value="&lt;p&gt;prepareRefresh&lt;/p&gt;" style="rounded=1;whiteSpace=wrap;html=1;" vertex="1" parent="WIyWlLk6GJQsqaUBKTNV-1">
          <mxGeometry x="380" y="213" width="150" height="27" as="geometry" />
        </mxCell>
        <mxCell id="GByTZLMGITt-RZH-Ib0M-54" value="刷新bean工程" style="edgeStyle=orthogonalEdgeStyle;rounded=0;orthogonalLoop=1;jettySize=auto;html=1;" edge="1" parent="WIyWlLk6GJQsqaUBKTNV-1" source="GByTZLMGITt-RZH-Ib0M-25" target="GByTZLMGITt-RZH-Ib0M-53">
          <mxGeometry relative="1" as="geometry" />
        </mxCell>
        <mxCell id="GByTZLMGITt-RZH-Ib0M-58" style="edgeStyle=orthogonalEdgeStyle;rounded=0;orthogonalLoop=1;jettySize=auto;html=1;entryX=0.363;entryY=0.04;entryDx=0;entryDy=0;entryPerimeter=0;" edge="1" parent="WIyWlLk6GJQsqaUBKTNV-1" source="GByTZLMGITt-RZH-Ib0M-25" target="GByTZLMGITt-RZH-Ib0M-57">
          <mxGeometry relative="1" as="geometry" />
        </mxCell>
        <mxCell id="GByTZLMGITt-RZH-Ib0M-25" value="&lt;p&gt;obtainFreshBeanFactory&lt;/p&gt;" style="rounded=1;whiteSpace=wrap;html=1;" vertex="1" parent="WIyWlLk6GJQsqaUBKTNV-1">
          <mxGeometry x="540" y="213" width="150" height="27" as="geometry" />
        </mxCell>
        <mxCell id="GByTZLMGITt-RZH-Ib0M-27" value="&lt;p&gt;prepareBeanFactory&lt;/p&gt;" style="rounded=1;whiteSpace=wrap;html=1;" vertex="1" parent="WIyWlLk6GJQsqaUBKTNV-1">
          <mxGeometry x="710" y="213" width="150" height="27" as="geometry" />
        </mxCell>
        <mxCell id="GByTZLMGITt-RZH-Ib0M-28" value="&lt;p&gt;postProcessBeanFactory&lt;/p&gt;" style="rounded=1;whiteSpace=wrap;html=1;" vertex="1" parent="WIyWlLk6GJQsqaUBKTNV-1">
          <mxGeometry x="880" y="213" width="150" height="27" as="geometry" />
        </mxCell>
        <mxCell id="GByTZLMGITt-RZH-Ib0M-29" value="&lt;p&gt;invokeBeanFactoryPostProcessors&lt;/p&gt;" style="rounded=1;whiteSpace=wrap;html=1;" vertex="1" parent="WIyWlLk6GJQsqaUBKTNV-1">
          <mxGeometry x="1050" y="213" width="230" height="27" as="geometry" />
        </mxCell>
        <mxCell id="GByTZLMGITt-RZH-Ib0M-30" value="&lt;p&gt;registerBeanPostProcessors&lt;/p&gt;" style="rounded=1;whiteSpace=wrap;html=1;" vertex="1" parent="WIyWlLk6GJQsqaUBKTNV-1">
          <mxGeometry x="1300" y="213" width="180" height="27" as="geometry" />
        </mxCell>
        <mxCell id="GByTZLMGITt-RZH-Ib0M-31" value="&lt;p&gt;initMessageSource&lt;/p&gt;" style="rounded=1;whiteSpace=wrap;html=1;" vertex="1" parent="WIyWlLk6GJQsqaUBKTNV-1">
          <mxGeometry x="1504" y="213" width="156" height="27" as="geometry" />
        </mxCell>
        <mxCell id="GByTZLMGITt-RZH-Ib0M-32" value="&lt;p&gt;initApplicationEventMulticaster&lt;/p&gt;" style="rounded=1;whiteSpace=wrap;html=1;" vertex="1" parent="WIyWlLk6GJQsqaUBKTNV-1">
          <mxGeometry x="1680" y="213" width="210" height="27" as="geometry" />
        </mxCell>
        <mxCell id="GByTZLMGITt-RZH-Ib0M-33" value="&lt;p&gt;onRefresh&lt;/p&gt;" style="rounded=1;whiteSpace=wrap;html=1;" vertex="1" parent="WIyWlLk6GJQsqaUBKTNV-1">
          <mxGeometry x="1918" y="213" width="162" height="27" as="geometry" />
        </mxCell>
        <mxCell id="GByTZLMGITt-RZH-Ib0M-34" value="&lt;p&gt;registerListeners&lt;br&gt;&lt;/p&gt;" style="rounded=1;whiteSpace=wrap;html=1;" vertex="1" parent="WIyWlLk6GJQsqaUBKTNV-1">
          <mxGeometry x="2093" y="213" width="147" height="27" as="geometry" />
        </mxCell>
        <mxCell id="GByTZLMGITt-RZH-Ib0M-35" value="&lt;p&gt;&lt;span style=&quot;background-color: rgb(255 , 0 , 0)&quot;&gt;finishBeanFactoryInitialization&lt;/span&gt;&lt;/p&gt;" style="rounded=1;whiteSpace=wrap;html=1;strokeColor=#CC0000;" vertex="1" parent="WIyWlLk6GJQsqaUBKTNV-1">
          <mxGeometry x="2260" y="213" width="250" height="27" as="geometry" />
        </mxCell>
        <mxCell id="GByTZLMGITt-RZH-Ib0M-36" value="&lt;p&gt;finishRefresh&lt;/p&gt;" style="rounded=1;whiteSpace=wrap;html=1;" vertex="1" parent="WIyWlLk6GJQsqaUBKTNV-1">
          <mxGeometry x="2530" y="213" width="150" height="27" as="geometry" />
        </mxCell>
        <mxCell id="GByTZLMGITt-RZH-Ib0M-56" value="创建beanFactoey" style="rounded=0;orthogonalLoop=1;jettySize=auto;html=1;" edge="1" parent="WIyWlLk6GJQsqaUBKTNV-1" source="GByTZLMGITt-RZH-Ib0M-53" target="GByTZLMGITt-RZH-Ib0M-55">
          <mxGeometry relative="1" as="geometry" />
        </mxCell>
        <mxCell id="GByTZLMGITt-RZH-Ib0M-53" value="&lt;p&gt;refreshBeanFactory&lt;/p&gt;" style="whiteSpace=wrap;html=1;rounded=1;" vertex="1" parent="WIyWlLk6GJQsqaUBKTNV-1">
          <mxGeometry x="444" y="380" width="155" height="26.5" as="geometry" />
        </mxCell>
        <mxCell id="GByTZLMGITt-RZH-Ib0M-60" value="&lt;p&gt;创建beanDefinitionReader并设置环境等&lt;/p&gt;" style="edgeStyle=none;rounded=0;orthogonalLoop=1;jettySize=auto;html=1;" edge="1" parent="WIyWlLk6GJQsqaUBKTNV-1" source="GByTZLMGITt-RZH-Ib0M-55" target="GByTZLMGITt-RZH-Ib0M-59">
          <mxGeometry relative="1" as="geometry" />
        </mxCell>
        <mxCell id="GByTZLMGITt-RZH-Ib0M-55" value="&lt;p&gt;loadBeanDefinitions&lt;/p&gt;&lt;p&gt;(beanFectoey)&lt;/p&gt;" style="whiteSpace=wrap;html=1;rounded=1;" vertex="1" parent="WIyWlLk6GJQsqaUBKTNV-1">
          <mxGeometry x="444" y="446.5" width="160" height="50" as="geometry" />
        </mxCell>
        <mxCell id="GByTZLMGITt-RZH-Ib0M-98" style="edgeStyle=orthogonalEdgeStyle;rounded=0;orthogonalLoop=1;jettySize=auto;html=1;exitX=0.5;exitY=0;exitDx=0;exitDy=0;strokeColor=#FF3333;" edge="1" parent="WIyWlLk6GJQsqaUBKTNV-1" source="GByTZLMGITt-RZH-Ib0M-57">
          <mxGeometry relative="1" as="geometry">
            <mxPoint x="640" y="240" as="targetPoint" />
            <Array as="points">
              <mxPoint x="740" y="380" />
              <mxPoint x="740" y="290" />
              <mxPoint x="640" y="290" />
              <mxPoint x="640" y="240" />
            </Array>
          </mxGeometry>
        </mxCell>
        <mxCell id="GByTZLMGITt-RZH-Ib0M-99" value="返回一个beanFactory" style="edgeLabel;html=1;align=center;verticalAlign=middle;resizable=0;points=[];" vertex="1" connectable="0" parent="GByTZLMGITt-RZH-Ib0M-98">
          <mxGeometry x="-0.2818" relative="1" as="geometry">
            <mxPoint as="offset" />
          </mxGeometry>
        </mxCell>
        <mxCell id="GByTZLMGITt-RZH-Ib0M-57" value="&lt;p&gt;getBeanFactory&lt;/p&gt;" style="whiteSpace=wrap;html=1;rounded=1;" vertex="1" parent="WIyWlLk6GJQsqaUBKTNV-1">
          <mxGeometry x="620" y="380" width="155" height="26.5" as="geometry" />
        </mxCell>
        <mxCell id="GByTZLMGITt-RZH-Ib0M-62" value="" style="edgeStyle=none;rounded=0;orthogonalLoop=1;jettySize=auto;html=1;" edge="1" parent="WIyWlLk6GJQsqaUBKTNV-1" source="GByTZLMGITt-RZH-Ib0M-59" target="GByTZLMGITt-RZH-Ib0M-61">
          <mxGeometry relative="1" as="geometry" />
        </mxCell>
        <mxCell id="GByTZLMGITt-RZH-Ib0M-59" value="&lt;p&gt;loadBeanDefinitions&lt;/p&gt;&lt;p&gt;(beanDefinitionReader)&lt;/p&gt;" style="whiteSpace=wrap;html=1;rounded=1;" vertex="1" parent="WIyWlLk6GJQsqaUBKTNV-1">
          <mxGeometry x="444" y="541.5" width="160" height="55" as="geometry" />
        </mxCell>
        <mxCell id="GByTZLMGITt-RZH-Ib0M-64" value="" style="edgeStyle=none;rounded=0;orthogonalLoop=1;jettySize=auto;html=1;" edge="1" parent="WIyWlLk6GJQsqaUBKTNV-1" source="GByTZLMGITt-RZH-Ib0M-61" target="GByTZLMGITt-RZH-Ib0M-63">
          <mxGeometry relative="1" as="geometry" />
        </mxCell>
        <mxCell id="GByTZLMGITt-RZH-Ib0M-65" value="开始调用处理" style="edgeLabel;html=1;align=center;verticalAlign=middle;resizable=0;points=[];" vertex="1" connectable="0" parent="GByTZLMGITt-RZH-Ib0M-64">
          <mxGeometry x="-0.0587" y="-1" relative="1" as="geometry">
            <mxPoint as="offset" />
          </mxGeometry>
        </mxCell>
        <mxCell id="GByTZLMGITt-RZH-Ib0M-61" value="重载loadBeanDefinitions（）&lt;br&gt;方法多次······" style="whiteSpace=wrap;html=1;rounded=1;" vertex="1" parent="WIyWlLk6GJQsqaUBKTNV-1">
          <mxGeometry x="444" y="631.5" width="162.5" height="60" as="geometry" />
        </mxCell>
        <mxCell id="GByTZLMGITt-RZH-Ib0M-68" value="" style="edgeStyle=none;rounded=0;orthogonalLoop=1;jettySize=auto;html=1;" edge="1" parent="WIyWlLk6GJQsqaUBKTNV-1" source="GByTZLMGITt-RZH-Ib0M-63" target="GByTZLMGITt-RZH-Ib0M-67">
          <mxGeometry relative="1" as="geometry" />
        </mxCell>
        <mxCell id="GByTZLMGITt-RZH-Ib0M-69" value="开注册beanDefinitions" style="edgeLabel;html=1;align=center;verticalAlign=middle;resizable=0;points=[];" vertex="1" connectable="0" parent="GByTZLMGITt-RZH-Ib0M-68">
          <mxGeometry x="-0.0504" y="-1" relative="1" as="geometry">
            <mxPoint as="offset" />
          </mxGeometry>
        </mxCell>
        <mxCell id="GByTZLMGITt-RZH-Ib0M-63" value="&lt;p&gt;doLoadBeanDefinitions()&lt;/p&gt;" style="whiteSpace=wrap;html=1;rounded=1;" vertex="1" parent="WIyWlLk6GJQsqaUBKTNV-1">
          <mxGeometry x="444" y="746.5" width="160" height="40" as="geometry" />
        </mxCell>
        <mxCell id="GByTZLMGITt-RZH-Ib0M-71" value="" style="edgeStyle=none;rounded=0;orthogonalLoop=1;jettySize=auto;html=1;" edge="1" parent="WIyWlLk6GJQsqaUBKTNV-1" source="GByTZLMGITt-RZH-Ib0M-67" target="GByTZLMGITt-RZH-Ib0M-70">
          <mxGeometry relative="1" as="geometry" />
        </mxCell>
        <mxCell id="GByTZLMGITt-RZH-Ib0M-67" value="&lt;p&gt;registerBeanDefinitions&lt;/p&gt;" style="whiteSpace=wrap;html=1;rounded=1;" vertex="1" parent="WIyWlLk6GJQsqaUBKTNV-1">
          <mxGeometry x="445.25" y="826.5" width="160" height="60" as="geometry" />
        </mxCell>
        <mxCell id="GByTZLMGITt-RZH-Ib0M-74" value="" style="edgeStyle=none;rounded=0;orthogonalLoop=1;jettySize=auto;html=1;" edge="1" parent="WIyWlLk6GJQsqaUBKTNV-1" source="GByTZLMGITt-RZH-Ib0M-70" target="GByTZLMGITt-RZH-Ib0M-73">
          <mxGeometry relative="1" as="geometry" />
        </mxCell>
        <mxCell id="GByTZLMGITt-RZH-Ib0M-75" value="准备注册beanDefinitions" style="edgeLabel;html=1;align=center;verticalAlign=middle;resizable=0;points=[];" vertex="1" connectable="0" parent="GByTZLMGITt-RZH-Ib0M-74">
          <mxGeometry x="-0.0597" y="1" relative="1" as="geometry">
            <mxPoint as="offset" />
          </mxGeometry>
        </mxCell>
        <mxCell id="GByTZLMGITt-RZH-Ib0M-70" value="&lt;p&gt;documentReader&lt;/p&gt;&lt;p&gt;.registerBeanDefinitions&lt;/p&gt;" style="whiteSpace=wrap;html=1;rounded=1;" vertex="1" parent="WIyWlLk6GJQsqaUBKTNV-1">
          <mxGeometry x="444" y="966.5" width="160" height="60" as="geometry" />
        </mxCell>
        <mxCell id="GByTZLMGITt-RZH-Ib0M-72" value="&lt;p&gt;&lt;/p&gt;&lt;p&gt;&lt;br&gt;&lt;/p&gt;创建一个：documentReader&lt;p&gt;createBeanDefinitionDocumentReader&lt;/p&gt;" style="text;html=1;align=center;verticalAlign=middle;resizable=0;points=[];autosize=1;" vertex="1" parent="WIyWlLk6GJQsqaUBKTNV-1">
          <mxGeometry x="414" y="866.5" width="220" height="100" as="geometry" />
        </mxCell>
        <mxCell id="GByTZLMGITt-RZH-Ib0M-77" value="" style="edgeStyle=none;rounded=0;orthogonalLoop=1;jettySize=auto;html=1;" edge="1" parent="WIyWlLk6GJQsqaUBKTNV-1" source="GByTZLMGITt-RZH-Ib0M-73" target="GByTZLMGITt-RZH-Ib0M-76">
          <mxGeometry relative="1" as="geometry" />
        </mxCell>
        <mxCell id="GByTZLMGITt-RZH-Ib0M-78" value="解析bean文件" style="edgeLabel;html=1;align=center;verticalAlign=middle;resizable=0;points=[];" vertex="1" connectable="0" parent="GByTZLMGITt-RZH-Ib0M-77">
          <mxGeometry x="-0.0615" y="-1" relative="1" as="geometry">
            <mxPoint as="offset" />
          </mxGeometry>
        </mxCell>
        <mxCell id="GByTZLMGITt-RZH-Ib0M-73" value="&lt;p&gt;&lt;span style=&quot;color: rgb(255 , 198 , 109)&quot;&gt;doRegisterBeanDefinitions&lt;/span&gt;&lt;/p&gt;" style="whiteSpace=wrap;html=1;rounded=1;" vertex="1" parent="WIyWlLk6GJQsqaUBKTNV-1">
          <mxGeometry x="441.5" y="1066.5" width="160" height="30" as="geometry" />
        </mxCell>
        <mxCell id="GByTZLMGITt-RZH-Ib0M-80" value="" style="edgeStyle=none;rounded=0;orthogonalLoop=1;jettySize=auto;html=1;" edge="1" parent="WIyWlLk6GJQsqaUBKTNV-1" source="GByTZLMGITt-RZH-Ib0M-76" target="GByTZLMGITt-RZH-Ib0M-79">
          <mxGeometry relative="1" as="geometry" />
        </mxCell>
        <mxCell id="GByTZLMGITt-RZH-Ib0M-82" value="解析默认元素" style="edgeLabel;html=1;align=center;verticalAlign=middle;resizable=0;points=[];" vertex="1" connectable="0" parent="GByTZLMGITt-RZH-Ib0M-80">
          <mxGeometry x="-0.184" relative="1" as="geometry">
            <mxPoint as="offset" />
          </mxGeometry>
        </mxCell>
        <mxCell id="GByTZLMGITt-RZH-Ib0M-76" value="&lt;p&gt;parseBeanDefinitions&lt;/p&gt;" style="whiteSpace=wrap;html=1;rounded=1;" vertex="1" parent="WIyWlLk6GJQsqaUBKTNV-1">
          <mxGeometry x="461.5" y="1161.5" width="120" height="25" as="geometry" />
        </mxCell>
        <mxCell id="GByTZLMGITt-RZH-Ib0M-84" value="" style="edgeStyle=none;rounded=0;orthogonalLoop=1;jettySize=auto;html=1;" edge="1" parent="WIyWlLk6GJQsqaUBKTNV-1" source="GByTZLMGITt-RZH-Ib0M-79" target="GByTZLMGITt-RZH-Ib0M-83">
          <mxGeometry relative="1" as="geometry" />
        </mxCell>
        <mxCell id="GByTZLMGITt-RZH-Ib0M-85" value="&lt;p&gt;&lt;span style=&quot;color: rgb(152 , 118 , 170) ; font-style: italic&quot;&gt;解析bean文件(BEAN_ELEMENT)&lt;/span&gt;&lt;/p&gt;" style="edgeLabel;html=1;align=center;verticalAlign=middle;resizable=0;points=[];" vertex="1" connectable="0" parent="GByTZLMGITt-RZH-Ib0M-84">
          <mxGeometry x="-0.0693" y="-2" relative="1" as="geometry">
            <mxPoint as="offset" />
          </mxGeometry>
        </mxCell>
        <mxCell id="GByTZLMGITt-RZH-Ib0M-79" value="&lt;p&gt;parseDefaultElement&lt;/p&gt;" style="whiteSpace=wrap;html=1;rounded=1;" vertex="1" parent="WIyWlLk6GJQsqaUBKTNV-1">
          <mxGeometry x="461.5" y="1249" width="120" height="27.5" as="geometry" />
        </mxCell>
        <mxCell id="GByTZLMGITt-RZH-Ib0M-87" value="" style="edgeStyle=none;rounded=0;orthogonalLoop=1;jettySize=auto;html=1;" edge="1" parent="WIyWlLk6GJQsqaUBKTNV-1" source="GByTZLMGITt-RZH-Ib0M-83">
          <mxGeometry relative="1" as="geometry">
            <mxPoint x="521" y="1426.5" as="targetPoint" />
          </mxGeometry>
        </mxCell>
        <mxCell id="GByTZLMGITt-RZH-Ib0M-88" value="工具类处理bean" style="edgeLabel;html=1;align=center;verticalAlign=middle;resizable=0;points=[];" vertex="1" connectable="0" parent="GByTZLMGITt-RZH-Ib0M-87">
          <mxGeometry x="-0.0656" y="1" relative="1" as="geometry">
            <mxPoint as="offset" />
          </mxGeometry>
        </mxCell>
        <mxCell id="GByTZLMGITt-RZH-Ib0M-83" value="&lt;p&gt;processBeanDefinition&lt;/p&gt;" style="whiteSpace=wrap;html=1;rounded=1;" vertex="1" parent="WIyWlLk6GJQsqaUBKTNV-1">
          <mxGeometry x="444" y="1340.25" width="150" height="26.25" as="geometry" />
        </mxCell>
        <mxCell id="GByTZLMGITt-RZH-Ib0M-90" value="" style="edgeStyle=none;rounded=0;orthogonalLoop=1;jettySize=auto;html=1;" edge="1" parent="WIyWlLk6GJQsqaUBKTNV-1" source="GByTZLMGITt-RZH-Ib0M-86" target="GByTZLMGITt-RZH-Ib0M-89">
          <mxGeometry relative="1" as="geometry" />
        </mxCell>
        <mxCell id="GByTZLMGITt-RZH-Ib0M-91" value="最终处理beanDefinitionMap入口" style="edgeLabel;html=1;align=center;verticalAlign=middle;resizable=0;points=[];" vertex="1" connectable="0" parent="GByTZLMGITt-RZH-Ib0M-90">
          <mxGeometry x="0.054" y="-1" relative="1" as="geometry">
            <mxPoint as="offset" />
          </mxGeometry>
        </mxCell>
        <mxCell id="GByTZLMGITt-RZH-Ib0M-86" value="&lt;p&gt;BeanDefinitionReaderUtils&lt;/p&gt;&lt;p&gt;.&lt;span style=&quot;font-style: italic&quot;&gt;registerBeanDefinition&lt;/span&gt;&lt;/p&gt;" style="whiteSpace=wrap;html=1;rounded=1;" vertex="1" parent="WIyWlLk6GJQsqaUBKTNV-1">
          <mxGeometry x="441.5" y="1429.63" width="185" height="56.87" as="geometry" />
        </mxCell>
        <mxCell id="GByTZLMGITt-RZH-Ib0M-89" value="&lt;p&gt;registry.&lt;/p&gt;&lt;p&gt;registerBeanDefinition&lt;/p&gt;" style="whiteSpace=wrap;html=1;rounded=1;" vertex="1" parent="WIyWlLk6GJQsqaUBKTNV-1">
          <mxGeometry x="441.5" y="1564.94" width="188.5" height="60" as="geometry" />
        </mxCell>
        <mxCell id="GByTZLMGITt-RZH-Ib0M-100" value="&lt;b&gt;&lt;font style=&quot;font-size: 14px ; background-color: rgb(51 , 255 , 51)&quot;&gt;spring准备工作&lt;/font&gt;&lt;/b&gt;" style="text;html=1;strokeColor=#66FF66;fillColor=none;align=center;verticalAlign=middle;whiteSpace=wrap;rounded=0;" vertex="1" parent="WIyWlLk6GJQsqaUBKTNV-1">
          <mxGeometry x="350" y="250" width="120" height="20" as="geometry" />
        </mxCell>
        <mxCell id="GByTZLMGITt-RZH-Ib0M-101" value="&lt;span style=&quot;background-color: rgb(255 , 51 , 51)&quot;&gt;初始化九大组件&lt;/span&gt;" style="text;html=1;strokeColor=none;fillColor=none;align=center;verticalAlign=middle;whiteSpace=wrap;rounded=0;" vertex="1" parent="WIyWlLk6GJQsqaUBKTNV-1">
          <mxGeometry x="870" y="250" width="120" height="20" as="geometry" />
        </mxCell>
      </root>
    </mxGraphModel>
  </diagram>
</mxfile>
